<?xml version="1.0" encoding="utf-8"?>
<!-- Generator: Adobe Illustrator 23.1.0, SVG Export Plug-In . SVG Version: 6.00 Build 0)  -->
<svg version="1.1" id="Capa_1" xmlns="http://www.w3.org/2000/svg" xmlns:xlink="http://www.w3.org/1999/xlink" x="0px" y="0px"
	 viewBox="0 0 500 500" style="enable-background:new 0 0 500 500;" xml:space="preserve">
<style type="text/css">
	.st0{fill:#F6DF19;}
	.st1{fill:#010101;}
</style>
<rect x="-0.2" y="0" class="st0" width="500" height="500"/>
<g>
	<g>
		<path class="st1" d="M249.8,450c-110.3,0-200-89.7-200-200s89.7-200,200-200s200,89.7,200,200S360.1,450,249.8,450z M249.8,68
			c-100.4,0-182,81.6-182,182s81.6,182,182,182s182-81.6,182-182S350.2,68,249.8,68z"/>
	</g>
	<g>
		<path class="st1" d="M263.7,243.8c0.2-0.1,0.4-0.2,0.5-0.3c-0.2,0.1-0.4,0.1-0.5,0.2V243.8z"/>
		<path class="st1" d="M301.1,192.6c3,0.2,6,0.8,9.1,1.7l0.1,0c1.2,0.3,2.4-0.3,2.8-1.5c0.2-0.8,0-1.7-0.7-2.3
			c-3.1-2.8-7-4.7-11.2-5.8c-4.2-1-8.7-1.2-13-0.4c-4.3,0.9-8.5,2.5-12,5.1c-3.5,2.7-6.2,6.4-7.2,10.6c-0.1,0.4,0,0.8,0.1,1.2
			c-2.1,3.6-3.4,7.7-3.4,12.2l5.7-1.7c0-6.5,7.3-11.8,16.3-11.8c9,0,16.3,5.3,16.3,11.8l9.5,1.7
			C313.4,204.5,308.4,196.7,301.1,192.6z"/>
		<path class="st1" d="M237.4,189.5c-3.5-2.7-7.7-4.3-12-5.1c-4.3-0.8-8.8-0.7-13,0.4c-4.2,1.1-8.1,3-11.2,5.8
			c-0.6,0.6-0.9,1.4-0.7,2.3c0.3,1.2,1.6,1.9,2.8,1.5l0.1,0c0.2-0.1,0.4-0.1,0.7-0.2c-6.3,4.3-10.5,11.6-10.5,19.8l9.5-1.7
			c0-6.5,7.3-11.8,16.3-11.8c9,0,16.3,5.3,16.3,11.8l5.7,1.7c0-5.1-1.6-9.8-4.3-13.6c1.2,0.7,2.5,1.5,3.9,2.3l0.1,0.1
			c0.5,0.3,1.1,0.4,1.7,0.3c1.3-0.3,2-1.6,1.7-2.8C243.7,195.8,240.9,192.1,237.4,189.5z"/>
		<path class="st1" d="M268.6,288.2h-1.5c-0.4,1.5-1.8,2.6-3.5,2.6h-21.7c-1.6,0-3-1.1-3.5-2.6H236c-2.4,0-4.4,2-4.4,4.4v1.2
			c0,2.4,2,4.4,4.4,4.4h32.6c2.4,0,4.4-2,4.4-4.4v-1.2C272.9,290.1,271,288.2,268.6,288.2z"/>
		<path class="st1" d="M263.2,243.6v0.2c0.2-0.1,0.4-0.2,0.5-0.3C263.6,243.5,263.4,243.5,263.2,243.6z"/>
		<path class="st1" d="M219.7,217.6c2.8,0,5.4-0.7,7.6-2c1.1-1.4,1.8-3.1,1.8-4.9c0-2.5-1.2-4.6-2.9-6.1c-2-0.9-4.1-1.5-6.5-1.5
			c-0.3,0-0.6,0-0.8,0.1c-3.2,1-5.5,4-5.5,7.5c0,2.9,1.5,5.3,3.8,6.7C218,217.5,218.8,217.6,219.7,217.6z"/>
		<path class="st1" d="M289.6,217.3c2.3-1.4,3.8-3.9,3.8-6.7c0-3.5-2.3-6.5-5.5-7.5c-0.3,0-0.6-0.1-0.8-0.1c-2.3,0-4.5,0.5-6.5,1.5
			c-1.8,1.4-2.9,3.6-2.9,6.1c0,1.9,0.7,3.6,1.8,4.9c2.2,1.3,4.8,2,7.6,2C287.9,217.6,288.7,217.5,289.6,217.3z"/>
		<path class="st1" d="M355.2,341c-0.6-4.9-1.6-9.4-2.8-13l-5.8-18.2l-23.7,7.5c0,0,0,0.8,0,2.3c-0.1-0.3-0.2-0.5-0.2-0.8
			c-0.9-3.7-1.4-7.7-1.8-11.8c-0.4-4.1-0.6-8.2-0.6-12.3c0-1,0-2.1,0-2.9l0.2-3.1l0.2-3.1l0.1-1.5l0.1-0.7v0
			c2.5-6.6,4-13.7,4.3-21.1c0.1,0,0.1,0,0.2,0c5.4,0.9,10.6-2.7,11.5-8.1L344,213c0.9-5.4-2.7-10.6-8.1-11.5
			c-1.6-0.3-3.1-0.1-4.5,0.3c6.1-10.1,9.6-21.9,9.6-34.5c0-2.8-0.2-5.6-0.5-8.3c1.6-0.9,3.1-2.2,4.1-3.9c7.8-12.7,3.8-29.4-8.8-37.2
			c-2.9-1.8-6-2.9-9.2-3.5c-7.2-11.1-17.7-19.9-30-25.1c-3.8-4.3-9.4-7.1-15.6-7.1h-41.7c-4.7,0-9.1,1.6-12.6,4.3
			c-9.6,1.3-18.5,4.7-26.3,9.6c-6.5-1.1-13.5,3.1-13.5,11.2c-10.9,11.7-17.6,27.3-17.9,44.5c-1.2,5-1.8,10.2-1.8,15.6
			c0,12.5,3.4,24.2,9.4,34.2c-5.2,1.1-8.7,6.2-7.8,11.4l7.1,41.1c0.9,4.9,5.3,8.4,10.1,8.2c0.5,11.4,3.8,22,9.1,31.3l0.5,4.9
			l0.3,3.1c0.1,0.6,0,0.8,0.1,1.4l0.1,1.5c0.1,4.1,0.1,8.3-0.1,12.3c-0.2,4-0.6,8-1.4,11.7c-0.2,0.9-0.4,1.8-0.6,2.6c0,0,0,0,0,0.1
			l-7.3-10l-31,22.4l11.2,15.5c0.7,0.9,1.5,2.1,2.4,3.4c-16.6,10.9-37.6,22.5-47.2,27.7c33.5,30.7,77.9,49.6,126.8,50.2l5.5-20.6
			l-18.5-5c-3.4-0.9-4.8-6.1-4.8-6.1l-1.8-8.3c-3.7-17.3-14-36.4-21.8-49.2c0.1-0.3,0.2-0.6,0.3-0.8c0.3-0.9,0.6-1.8,0.9-2.6
			l0.8-2.6l-0.6,1.2c1.4-3.3,2.1-6.3,2.4-8.9c0.2-1.3,0.3-2.7,0.3-3.9c0.1-1.3,0.1-2.5,0-3.7c-0.1-4.8-0.6-9.4-1.3-13.9
			c-0.3-1.6-0.6-3.2-0.9-4.8c12.3,10.9,28.4,17.4,46.1,17.4c21.1,0,40-9.4,52.8-24.2c-0.1,0.9-0.2,1.8-0.2,2.7
			c-0.2,4.5-0.3,9,0.1,13.7c0.2,2.4,0.5,4.8,1.1,7.4c0.6,2.6,1.4,5.3,3.1,8.2l-0.6-1c0.6,1.6,1.2,2.9,1.9,4.4
			c0.7,1.5,1.4,2.9,2.6,4.8l0.5,0.8l0.8,1l0.3,0.5c0.3,0.4,0.5,0.8,0.8,1.3c0.3,0.5,0.5,1,0.8,1.5c-3.5,15.3-10.6,31.9-24.8,40
			l-11.4,6.5l6,40.4c37-7.6,70.1-25.8,95.9-51.4l17.8-24.8l-17.8-8L355.2,341z M255.6,307.8c-15.8,0-30.4-5.2-42.2-13.9
			c0.6-2.9,1.7-5.5,3.2-7.7c0.6-0.8,1.1-1.6,1.8-2.3c0.3-0.4,0.7-0.7,1.1-1l1.4-1.2c0.9-0.8,1.8-1.6,2.7-2.3h26.4
			c-0.6-0.8-1-1.8-1-2.8v-6.8c1.5-0.1,2.9-0.2,4.4-0.2c1.6,0,3.1,0.1,4.7,0.3v6.8c0,1.1-0.4,2.1-1,2.8h26l0.1,0.1
			c1,0.7,1.8,1.5,2.7,2.3l1.4,1.2c0.3,0.3,0.7,0.7,1,1c0.7,0.7,1.2,1.5,1.8,2.3c2,2.9,3.2,6.4,3.6,10.4
			C282.8,303.7,269.7,307.8,255.6,307.8z M302.3,290.3c-0.1-3.2-0.9-6.4-2.4-9.4c-0.7-1.5-1.6-3-2.7-4.3c-0.5-0.7-1.1-1.3-1.6-1.9
			l-1.6-1.5c-1.1-1-2.1-2.1-3.3-3l-3.6-2.7c-4.2-2.9-8.7-5.4-13.5-7.2c2-1.8,3.3-4.5,3.3-7.4c0-4.2-2.6-7.8-6.3-9.2
			c1.7,1.1,2.8,3.1,2.8,5.3c0,3.5-2.8,6.3-6.3,6.3c-1.5,0-2.8-0.5-3.9-1.4c-0.2,1.3-0.8,2.5-1.5,3.5c0,0-0.1,0-0.1,0
			c-1.8,2.6-4.8,4.3-8.2,4.3c-3.4,0-6.3-1.7-8.2-4.3c0,0-0.1,0-0.1,0c-0.5-0.8-1-1.6-1.3-2.6c-0.7,0.2-1.4,0.4-2.2,0.4
			c-3.5,0-6.3-2.8-6.3-6.3c0-2.3,1.2-4.3,3.1-5.4c-4,1.3-6.8,5-6.8,9.4c0,2.8,1.1,5.2,2.9,7c-5.2,1.8-10.1,4.4-14.7,7.5l-3.6,2.7
			c-1.2,0.9-2.2,2-3.3,3l-1.6,1.5c-0.6,0.6-1.1,1.2-1.6,1.9c-1,1.3-2,2.8-2.7,4.3c-0.9,1.8-1.5,3.7-1.9,5.7
			c-7.7-7.9-13.5-17.5-16.7-28.2c-1.8-6.2-2.8-12.8-2.8-19.7l0.8-80.4c0-10.9,2.5-21.2,7-30.4c1.2,1.7,2.5,3.3,4,4.8
			c6.8,6.8,15.9,10.6,25.5,10.6c7.6,0,14.9-2.4,21-6.7H293c1.5,0,3.1-0.2,4.5-0.5c0.8,2.3,2.3,4.4,4.5,5.7c5.1,3.1,11.8,1.6,15-3.6
			c1-1.6,2.5-2.2,3.3-2.4c0.4-0.1,1.1-0.2,1.8-0.1c1.2,3.5,2.1,7.1,2.7,10.7c-0.8,2.7-0.4,5.6,0.9,8.1c0.1,1.2,0.1,2.4,0.1,3.7
			l-0.8,80.4C325,256.3,311.2,282.4,302.3,290.3z"/>
	</g>
</g>
</svg>
